<svg xmlns="http://www.w3.org/2000/svg" viewBox="0 15 128 97">

  <!-- Dark background -->
  <rect width="128" height="128" rx="20" fill="#1a1a1a"/>

  <!-- TV screen outline (widescreen shape) -->
  <rect x="10" y="21" width="108" height="66" rx="8"
        fill="none" stroke="white" stroke-width="6"/>

  <!-- TV stand: narrow neck + wider foot -->
  <rect x="56" y="87" width="16" height="14" rx="2" fill="white"/>
  <rect x="40" y="101" width="48" height="8"  rx="3" fill="white"/>

  <!--
    Circular seek arrow centered inside the TV screen.
    Screen interior: approx x 13–115, y 24–84; centre (64, 54).
    Arrow uses the same 24×24 path as the OSD indicator.
  -->
  <svg x="40" y="30" width="48" height="48" viewBox="0 0 24 24">
    <path fill="white"
      d="M4.293.293a1 1 0 011.414 1.414L4.414 3H13l.496.013A10 10 0 0113
         23a1 1 0 010-2 8.001 8.001 0 00.396-15.99L13 5H4.414l1.293
         1.293a1 1 0 01-1.414 1.414L.586 4 4.293.293Z"/>
  </svg>

</svg>
